<mxfile host="Electron" modified="2024-03-13T15:33:09.291Z" agent="Mozilla/5.0 (Windows NT 10.0; Win64; x64) AppleWebKit/537.36 (KHTML, like Gecko) draw.io/23.1.5 Chrome/120.0.6099.109 Electron/28.1.0 Safari/537.36" etag="xvF4DLBbUlzbKktWsC5d" version="23.1.5" type="device">
  <diagram name="PÃ¡gina-1" id="Cq0yBIc0B5gl0TRwu44t">
    <mxGraphModel dx="1235" dy="1900" grid="1" gridSize="10" guides="1" tooltips="1" connect="1" arrows="1" fold="1" page="1" pageScale="1" pageWidth="827" pageHeight="1169" math="0" shadow="0">
      <root>
        <mxCell id="0" />
        <mxCell id="1" parent="0" />
        <mxCell id="O7q4jtnxIEa_7QB6DmrL-5" value="" style="rounded=1;whiteSpace=wrap;html=1;fillColor=#0066CC;strokeColor=#FFFFFF;" vertex="1" parent="1">
          <mxGeometry x="301.5" y="70" width="380" height="190" as="geometry" />
        </mxCell>
        <mxCell id="O7q4jtnxIEa_7QB6DmrL-3" value="" style="rounded=1;whiteSpace=wrap;html=1;fillColor=#0066CC;strokeColor=#FFFFFF;" vertex="1" parent="1">
          <mxGeometry x="318.5" y="88" width="380" height="192" as="geometry" />
        </mxCell>
        <mxCell id="O7q4jtnxIEa_7QB6DmrL-4" value="&lt;b&gt;&lt;font color=&quot;#ffffff&quot; style=&quot;font-size: 14px;&quot;&gt;Master&lt;/font&gt;&lt;/b&gt;" style="text;html=1;align=center;verticalAlign=middle;whiteSpace=wrap;rounded=0;" vertex="1" parent="1">
          <mxGeometry x="333.5" y="95" width="60" height="30" as="geometry" />
        </mxCell>
        <mxCell id="O7q4jtnxIEa_7QB6DmrL-11" value="&lt;font color=&quot;#0066cc&quot;&gt;&lt;b&gt;API SERVER&lt;br&gt;(Pods, Services, ...)&lt;br&gt;&lt;/b&gt;&lt;/font&gt;" style="rounded=1;whiteSpace=wrap;html=1;strokeColor=#FFFFFF;" vertex="1" parent="1">
          <mxGeometry x="425" y="130" width="150" height="50" as="geometry" />
        </mxCell>
        <mxCell id="O7q4jtnxIEa_7QB6DmrL-109" style="edgeStyle=orthogonalEdgeStyle;rounded=0;orthogonalLoop=1;jettySize=auto;html=1;" edge="1" parent="1" source="O7q4jtnxIEa_7QB6DmrL-13" target="O7q4jtnxIEa_7QB6DmrL-11">
          <mxGeometry relative="1" as="geometry">
            <Array as="points">
              <mxPoint x="415" y="200" />
              <mxPoint x="500" y="200" />
            </Array>
          </mxGeometry>
        </mxCell>
        <mxCell id="O7q4jtnxIEa_7QB6DmrL-13" value="&lt;font color=&quot;#0066cc&quot;&gt;&lt;b&gt;Scheduler&lt;br&gt;&lt;/b&gt;&lt;/font&gt;" style="rounded=1;whiteSpace=wrap;html=1;strokeColor=#FFFFFF;" vertex="1" parent="1">
          <mxGeometry x="340" y="210" width="150" height="50" as="geometry" />
        </mxCell>
        <mxCell id="O7q4jtnxIEa_7QB6DmrL-108" style="edgeStyle=orthogonalEdgeStyle;rounded=0;orthogonalLoop=1;jettySize=auto;html=1;" edge="1" parent="1" source="O7q4jtnxIEa_7QB6DmrL-14" target="O7q4jtnxIEa_7QB6DmrL-11">
          <mxGeometry relative="1" as="geometry">
            <Array as="points">
              <mxPoint x="595" y="200" />
              <mxPoint x="500" y="200" />
            </Array>
          </mxGeometry>
        </mxCell>
        <mxCell id="O7q4jtnxIEa_7QB6DmrL-14" value="&lt;font color=&quot;#0066cc&quot;&gt;&lt;b&gt;Controle Manager&lt;br&gt;&lt;/b&gt;&lt;/font&gt;" style="rounded=1;whiteSpace=wrap;html=1;strokeColor=#FFFFFF;" vertex="1" parent="1">
          <mxGeometry x="520" y="210" width="150" height="50" as="geometry" />
        </mxCell>
        <mxCell id="O7q4jtnxIEa_7QB6DmrL-33" style="edgeStyle=orthogonalEdgeStyle;rounded=0;orthogonalLoop=1;jettySize=auto;html=1;" edge="1" parent="1" source="O7q4jtnxIEa_7QB6DmrL-32" target="O7q4jtnxIEa_7QB6DmrL-11">
          <mxGeometry relative="1" as="geometry" />
        </mxCell>
        <mxCell id="O7q4jtnxIEa_7QB6DmrL-32" value="&lt;b&gt;YAML&lt;/b&gt;" style="whiteSpace=wrap;html=1;shape=mxgraph.basic.document" vertex="1" parent="1">
          <mxGeometry x="130" y="120" width="60" height="70" as="geometry" />
        </mxCell>
        <mxCell id="O7q4jtnxIEa_7QB6DmrL-69" value="" style="rounded=1;whiteSpace=wrap;html=1;fillColor=#0066CC;strokeColor=#FFFFFF;container=0;" vertex="1" parent="1">
          <mxGeometry x="180.5" y="353.52" width="300" height="270" as="geometry" />
        </mxCell>
        <mxCell id="O7q4jtnxIEa_7QB6DmrL-105" style="edgeStyle=orthogonalEdgeStyle;rounded=0;orthogonalLoop=1;jettySize=auto;html=1;" edge="1" parent="1" source="O7q4jtnxIEa_7QB6DmrL-70" target="O7q4jtnxIEa_7QB6DmrL-3">
          <mxGeometry relative="1" as="geometry">
            <Array as="points">
              <mxPoint x="241" y="329" />
              <mxPoint x="508" y="329" />
            </Array>
          </mxGeometry>
        </mxCell>
        <mxCell id="O7q4jtnxIEa_7QB6DmrL-70" value="&lt;font color=&quot;#0066cc&quot;&gt;&lt;b&gt;Kubelet&lt;br&gt;&lt;/b&gt;&lt;/font&gt;" style="rounded=1;whiteSpace=wrap;html=1;strokeColor=#FFFFFF;container=0;" vertex="1" parent="1">
          <mxGeometry x="200.5" y="378.52" width="80" height="30" as="geometry" />
        </mxCell>
        <mxCell id="O7q4jtnxIEa_7QB6DmrL-71" value="&lt;font color=&quot;#0066cc&quot;&gt;&lt;b&gt;Proxy&lt;br&gt;&lt;/b&gt;&lt;/font&gt;" style="rounded=1;whiteSpace=wrap;html=1;strokeColor=#FFFFFF;container=0;" vertex="1" parent="1">
          <mxGeometry x="290.5" y="378.52" width="80" height="30" as="geometry" />
        </mxCell>
        <mxCell id="O7q4jtnxIEa_7QB6DmrL-72" value="&lt;b&gt;&lt;font color=&quot;#ffffff&quot; style=&quot;font-size: 14px;&quot;&gt;Worker&lt;/font&gt;&lt;/b&gt;" style="text;html=1;align=center;verticalAlign=middle;whiteSpace=wrap;rounded=0;container=0;" vertex="1" parent="1">
          <mxGeometry x="398.5" y="378.52" width="60" height="30" as="geometry" />
        </mxCell>
        <mxCell id="O7q4jtnxIEa_7QB6DmrL-73" value="&lt;font color=&quot;#0066cc&quot;&gt;&lt;b&gt;&lt;br&gt;&lt;/b&gt;&lt;/font&gt;" style="rounded=1;whiteSpace=wrap;html=1;container=0;" vertex="1" parent="1">
          <mxGeometry x="190.5" y="413.52" width="280" height="200" as="geometry" />
        </mxCell>
        <mxCell id="O7q4jtnxIEa_7QB6DmrL-74" value="&lt;font color=&quot;#0066cc&quot;&gt;&lt;b&gt;&lt;br&gt;&lt;/b&gt;&lt;/font&gt;" style="rounded=1;whiteSpace=wrap;html=1;strokeColor=#FFFFFF;fillColor=#0066CC;container=0;" vertex="1" parent="1">
          <mxGeometry x="200.5" y="463.52" width="80" height="140" as="geometry" />
        </mxCell>
        <mxCell id="O7q4jtnxIEa_7QB6DmrL-75" value="&lt;font style=&quot;font-size: 14px;&quot;&gt;Pod&lt;/font&gt;" style="text;html=1;align=center;verticalAlign=middle;whiteSpace=wrap;rounded=0;fontStyle=1;fontColor=#FFFFFF;container=0;" vertex="1" parent="1">
          <mxGeometry x="210.5" y="468.52" width="60" height="30" as="geometry" />
        </mxCell>
        <mxCell id="O7q4jtnxIEa_7QB6DmrL-76" value="" style="image;sketch=0;aspect=fixed;html=1;points=[];align=center;fontSize=12;image=img/lib/mscae/Docker.svg;container=0;" vertex="1" parent="1">
          <mxGeometry x="398.5" y="417.52" width="50" height="41" as="geometry" />
        </mxCell>
        <mxCell id="O7q4jtnxIEa_7QB6DmrL-77" value="" style="aspect=fixed;sketch=0;html=1;dashed=0;whitespace=wrap;fillColor=#2875E2;strokeColor=#ffffff;points=[[0.005,0.63,0],[0.1,0.2,0],[0.9,0.2,0],[0.5,0,0],[0.995,0.63,0],[0.72,0.99,0],[0.5,1,0],[0.28,0.99,0]];shape=mxgraph.kubernetes.icon2;kubernetesLabel=1;prIcon=pod;container=0;" vertex="1" parent="1">
          <mxGeometry x="219.67000000000002" y="501.52" width="41.67" height="40" as="geometry" />
        </mxCell>
        <mxCell id="O7q4jtnxIEa_7QB6DmrL-78" value="&lt;font&gt;&lt;b&gt;&lt;br&gt;&lt;/b&gt;&lt;/font&gt;" style="rounded=1;whiteSpace=wrap;html=1;strokeColor=#FFFFFF;fontColor=#0066CC;fillColor=#0066CC;container=0;" vertex="1" parent="1">
          <mxGeometry x="290.5" y="463.52" width="170" height="140" as="geometry" />
        </mxCell>
        <mxCell id="O7q4jtnxIEa_7QB6DmrL-79" value="" style="aspect=fixed;sketch=0;html=1;dashed=0;whitespace=wrap;fillColor=#2875E2;strokeColor=#ffffff;points=[[0.005,0.63,0],[0.1,0.2,0],[0.9,0.2,0],[0.5,0,0],[0.995,0.63,0],[0.72,0.99,0],[0.5,1,0],[0.28,0.99,0]];shape=mxgraph.kubernetes.icon2;kubernetesLabel=1;prIcon=pod;container=0;" vertex="1" parent="1">
          <mxGeometry x="219.67000000000002" y="553.52" width="41.67" height="40" as="geometry" />
        </mxCell>
        <mxCell id="O7q4jtnxIEa_7QB6DmrL-80" value="&lt;font style=&quot;font-size: 14px;&quot;&gt;Pod&lt;/font&gt;" style="text;html=1;align=center;verticalAlign=middle;whiteSpace=wrap;rounded=0;fontStyle=1;fontColor=#FFFFFF;container=0;" vertex="1" parent="1">
          <mxGeometry x="300.5" y="471.52" width="60" height="30" as="geometry" />
        </mxCell>
        <mxCell id="O7q4jtnxIEa_7QB6DmrL-81" value="" style="aspect=fixed;sketch=0;html=1;dashed=0;whitespace=wrap;fillColor=#2875E2;strokeColor=#ffffff;points=[[0.005,0.63,0],[0.1,0.2,0],[0.9,0.2,0],[0.5,0,0],[0.995,0.63,0],[0.72,0.99,0],[0.5,1,0],[0.28,0.99,0]];shape=mxgraph.kubernetes.icon2;kubernetesLabel=1;prIcon=pod;container=0;" vertex="1" parent="1">
          <mxGeometry x="318.83" y="498.52" width="41.67" height="40" as="geometry" />
        </mxCell>
        <mxCell id="O7q4jtnxIEa_7QB6DmrL-82" value="" style="aspect=fixed;sketch=0;html=1;dashed=0;whitespace=wrap;fillColor=#2875E2;strokeColor=#ffffff;points=[[0.005,0.63,0],[0.1,0.2,0],[0.9,0.2,0],[0.5,0,0],[0.995,0.63,0],[0.72,0.99,0],[0.5,1,0],[0.28,0.99,0]];shape=mxgraph.kubernetes.icon2;kubernetesLabel=1;prIcon=pod;container=0;" vertex="1" parent="1">
          <mxGeometry x="318.83" y="548.52" width="41.67" height="40" as="geometry" />
        </mxCell>
        <mxCell id="O7q4jtnxIEa_7QB6DmrL-84" value="" style="aspect=fixed;sketch=0;html=1;dashed=0;whitespace=wrap;fillColor=#2875E2;strokeColor=#ffffff;points=[[0.005,0.63,0],[0.1,0.2,0],[0.9,0.2,0],[0.5,0,0],[0.995,0.63,0],[0.72,0.99,0],[0.5,1,0],[0.28,0.99,0]];shape=mxgraph.kubernetes.icon2;kubernetesLabel=1;prIcon=pod;container=0;" vertex="1" parent="1">
          <mxGeometry x="389.65999999999997" y="548.52" width="41.67" height="40" as="geometry" />
        </mxCell>
        <mxCell id="O7q4jtnxIEa_7QB6DmrL-85" value="" style="aspect=fixed;sketch=0;html=1;dashed=0;whitespace=wrap;fillColor=#2875E2;strokeColor=#ffffff;points=[[0.005,0.63,0],[0.1,0.2,0],[0.9,0.2,0],[0.5,0,0],[0.995,0.63,0],[0.72,0.99,0],[0.5,1,0],[0.28,0.99,0]];shape=mxgraph.kubernetes.icon2;prIcon=api;container=0;" vertex="1" parent="1">
          <mxGeometry x="313.5" y="333" width="37" height="35.52" as="geometry" />
        </mxCell>
        <mxCell id="O7q4jtnxIEa_7QB6DmrL-88" value="" style="rounded=1;whiteSpace=wrap;html=1;fillColor=#0066CC;strokeColor=#FFFFFF;container=0;" vertex="1" parent="1">
          <mxGeometry x="519.5" y="351.52" width="300" height="270" as="geometry" />
        </mxCell>
        <mxCell id="O7q4jtnxIEa_7QB6DmrL-89" value="&lt;font color=&quot;#0066cc&quot;&gt;&lt;b&gt;Kubelet&lt;br&gt;&lt;/b&gt;&lt;/font&gt;" style="rounded=1;whiteSpace=wrap;html=1;strokeColor=#FFFFFF;container=0;" vertex="1" parent="1">
          <mxGeometry x="539.5" y="376.52" width="80" height="30" as="geometry" />
        </mxCell>
        <mxCell id="O7q4jtnxIEa_7QB6DmrL-90" value="&lt;font color=&quot;#0066cc&quot;&gt;&lt;b&gt;Proxy&lt;br&gt;&lt;/b&gt;&lt;/font&gt;" style="rounded=1;whiteSpace=wrap;html=1;strokeColor=#FFFFFF;container=0;" vertex="1" parent="1">
          <mxGeometry x="629.5" y="376.52" width="80" height="30" as="geometry" />
        </mxCell>
        <mxCell id="O7q4jtnxIEa_7QB6DmrL-91" value="&lt;b&gt;&lt;font color=&quot;#ffffff&quot; style=&quot;font-size: 14px;&quot;&gt;Worker&lt;/font&gt;&lt;/b&gt;" style="text;html=1;align=center;verticalAlign=middle;whiteSpace=wrap;rounded=0;container=0;" vertex="1" parent="1">
          <mxGeometry x="737.5" y="376.52" width="60" height="30" as="geometry" />
        </mxCell>
        <mxCell id="O7q4jtnxIEa_7QB6DmrL-92" value="&lt;font color=&quot;#0066cc&quot;&gt;&lt;b&gt;&lt;br&gt;&lt;/b&gt;&lt;/font&gt;" style="rounded=1;whiteSpace=wrap;html=1;container=0;" vertex="1" parent="1">
          <mxGeometry x="529.5" y="411.52" width="280" height="200" as="geometry" />
        </mxCell>
        <mxCell id="O7q4jtnxIEa_7QB6DmrL-93" value="&lt;font color=&quot;#0066cc&quot;&gt;&lt;b&gt;&lt;br&gt;&lt;/b&gt;&lt;/font&gt;" style="rounded=1;whiteSpace=wrap;html=1;strokeColor=#FFFFFF;fillColor=#0066CC;container=0;" vertex="1" parent="1">
          <mxGeometry x="539.5" y="461.52" width="80" height="140" as="geometry" />
        </mxCell>
        <mxCell id="O7q4jtnxIEa_7QB6DmrL-94" value="&lt;font style=&quot;font-size: 14px;&quot;&gt;Pod&lt;/font&gt;" style="text;html=1;align=center;verticalAlign=middle;whiteSpace=wrap;rounded=0;fontStyle=1;fontColor=#FFFFFF;container=0;" vertex="1" parent="1">
          <mxGeometry x="549.5" y="466.52" width="60" height="30" as="geometry" />
        </mxCell>
        <mxCell id="O7q4jtnxIEa_7QB6DmrL-95" value="" style="image;sketch=0;aspect=fixed;html=1;points=[];align=center;fontSize=12;image=img/lib/mscae/Docker.svg;container=0;" vertex="1" parent="1">
          <mxGeometry x="737.5" y="415.52" width="50" height="41" as="geometry" />
        </mxCell>
        <mxCell id="O7q4jtnxIEa_7QB6DmrL-96" value="" style="aspect=fixed;sketch=0;html=1;dashed=0;whitespace=wrap;fillColor=#2875E2;strokeColor=#ffffff;points=[[0.005,0.63,0],[0.1,0.2,0],[0.9,0.2,0],[0.5,0,0],[0.995,0.63,0],[0.72,0.99,0],[0.5,1,0],[0.28,0.99,0]];shape=mxgraph.kubernetes.icon2;kubernetesLabel=1;prIcon=pod;container=0;" vertex="1" parent="1">
          <mxGeometry x="558.67" y="499.52" width="41.67" height="40" as="geometry" />
        </mxCell>
        <mxCell id="O7q4jtnxIEa_7QB6DmrL-97" value="&lt;font&gt;&lt;b&gt;&lt;br&gt;&lt;/b&gt;&lt;/font&gt;" style="rounded=1;whiteSpace=wrap;html=1;strokeColor=#FFFFFF;fontColor=#0066CC;fillColor=#0066CC;container=0;" vertex="1" parent="1">
          <mxGeometry x="629.5" y="461.52" width="170" height="140" as="geometry" />
        </mxCell>
        <mxCell id="O7q4jtnxIEa_7QB6DmrL-98" value="" style="aspect=fixed;sketch=0;html=1;dashed=0;whitespace=wrap;fillColor=#2875E2;strokeColor=#ffffff;points=[[0.005,0.63,0],[0.1,0.2,0],[0.9,0.2,0],[0.5,0,0],[0.995,0.63,0],[0.72,0.99,0],[0.5,1,0],[0.28,0.99,0]];shape=mxgraph.kubernetes.icon2;kubernetesLabel=1;prIcon=pod;container=0;" vertex="1" parent="1">
          <mxGeometry x="558.67" y="551.52" width="41.67" height="40" as="geometry" />
        </mxCell>
        <mxCell id="O7q4jtnxIEa_7QB6DmrL-99" value="&lt;font style=&quot;font-size: 14px;&quot;&gt;Pod&lt;/font&gt;" style="text;html=1;align=center;verticalAlign=middle;whiteSpace=wrap;rounded=0;fontStyle=1;fontColor=#FFFFFF;container=0;" vertex="1" parent="1">
          <mxGeometry x="639.5" y="469.52" width="60" height="30" as="geometry" />
        </mxCell>
        <mxCell id="O7q4jtnxIEa_7QB6DmrL-100" value="" style="aspect=fixed;sketch=0;html=1;dashed=0;whitespace=wrap;fillColor=#2875E2;strokeColor=#ffffff;points=[[0.005,0.63,0],[0.1,0.2,0],[0.9,0.2,0],[0.5,0,0],[0.995,0.63,0],[0.72,0.99,0],[0.5,1,0],[0.28,0.99,0]];shape=mxgraph.kubernetes.icon2;kubernetesLabel=1;prIcon=pod;container=0;" vertex="1" parent="1">
          <mxGeometry x="657.8299999999999" y="496.52" width="41.67" height="40" as="geometry" />
        </mxCell>
        <mxCell id="O7q4jtnxIEa_7QB6DmrL-101" value="" style="aspect=fixed;sketch=0;html=1;dashed=0;whitespace=wrap;fillColor=#2875E2;strokeColor=#ffffff;points=[[0.005,0.63,0],[0.1,0.2,0],[0.9,0.2,0],[0.5,0,0],[0.995,0.63,0],[0.72,0.99,0],[0.5,1,0],[0.28,0.99,0]];shape=mxgraph.kubernetes.icon2;kubernetesLabel=1;prIcon=pod;container=0;" vertex="1" parent="1">
          <mxGeometry x="657.8299999999999" y="546.52" width="41.67" height="40" as="geometry" />
        </mxCell>
        <mxCell id="O7q4jtnxIEa_7QB6DmrL-103" value="" style="aspect=fixed;sketch=0;html=1;dashed=0;whitespace=wrap;fillColor=#2875E2;strokeColor=#ffffff;points=[[0.005,0.63,0],[0.1,0.2,0],[0.9,0.2,0],[0.5,0,0],[0.995,0.63,0],[0.72,0.99,0],[0.5,1,0],[0.28,0.99,0]];shape=mxgraph.kubernetes.icon2;kubernetesLabel=1;prIcon=pod;container=0;" vertex="1" parent="1">
          <mxGeometry x="728.66" y="546.52" width="41.67" height="40" as="geometry" />
        </mxCell>
        <mxCell id="O7q4jtnxIEa_7QB6DmrL-104" value="" style="aspect=fixed;sketch=0;html=1;dashed=0;whitespace=wrap;fillColor=#2875E2;strokeColor=#ffffff;points=[[0.005,0.63,0],[0.1,0.2,0],[0.9,0.2,0],[0.5,0,0],[0.995,0.63,0],[0.72,0.99,0],[0.5,1,0],[0.28,0.99,0]];shape=mxgraph.kubernetes.icon2;prIcon=api" vertex="1" parent="1">
          <mxGeometry x="652.5" y="331" width="37" height="35.52" as="geometry" />
        </mxCell>
        <mxCell id="O7q4jtnxIEa_7QB6DmrL-107" value="" style="shape=mxgraph.mockup.markup.redX;fillColor=#ff0000;html=1;shadow=0;whiteSpace=wrap;strokeColor=none;" vertex="1" parent="1">
          <mxGeometry x="724.49" y="541.52" width="50" height="50" as="geometry" />
        </mxCell>
        <mxCell id="O7q4jtnxIEa_7QB6DmrL-110" value="etcd" style="shape=cylinder3;whiteSpace=wrap;html=1;boundedLbl=1;backgroundOutline=1;size=15;" vertex="1" parent="1">
          <mxGeometry x="800" y="200" width="60" height="80" as="geometry" />
        </mxCell>
        <mxCell id="O7q4jtnxIEa_7QB6DmrL-111" style="edgeStyle=orthogonalEdgeStyle;rounded=0;orthogonalLoop=1;jettySize=auto;html=1;entryX=0.5;entryY=0;entryDx=0;entryDy=0;entryPerimeter=0;" edge="1" parent="1" source="O7q4jtnxIEa_7QB6DmrL-11" target="O7q4jtnxIEa_7QB6DmrL-110">
          <mxGeometry relative="1" as="geometry" />
        </mxCell>
        <mxCell id="O7q4jtnxIEa_7QB6DmrL-117" value="" style="edgeStyle=orthogonalEdgeStyle;rounded=0;orthogonalLoop=1;jettySize=auto;html=1;entryX=0.472;entryY=0.813;entryDx=0;entryDy=0;entryPerimeter=0;" edge="1" parent="1" source="O7q4jtnxIEa_7QB6DmrL-116" target="O7q4jtnxIEa_7QB6DmrL-2">
          <mxGeometry relative="1" as="geometry">
            <mxPoint x="500" y="-100" as="targetPoint" />
          </mxGeometry>
        </mxCell>
        <mxCell id="O7q4jtnxIEa_7QB6DmrL-118" value="&lt;b style=&quot;border-color: var(--border-color); font-size: 12px; background-color: rgb(251, 251, 251);&quot;&gt;&lt;font style=&quot;border-color: var(--border-color); font-size: 14px;&quot;&gt;Client&lt;/font&gt;&lt;/b&gt;" style="edgeLabel;html=1;align=center;verticalAlign=middle;resizable=0;points=[];" vertex="1" connectable="0" parent="O7q4jtnxIEa_7QB6DmrL-117">
          <mxGeometry x="-0.4932" y="3" relative="1" as="geometry">
            <mxPoint x="-3" y="10" as="offset" />
          </mxGeometry>
        </mxCell>
        <mxCell id="O7q4jtnxIEa_7QB6DmrL-116" value="" style="aspect=fixed;sketch=0;html=1;dashed=0;whitespace=wrap;fillColor=#2875E2;strokeColor=#ffffff;points=[[0.005,0.63,0],[0.1,0.2,0],[0.9,0.2,0],[0.5,0,0],[0.995,0.63,0],[0.72,0.99,0],[0.5,1,0],[0.28,0.99,0]];shape=mxgraph.kubernetes.icon2;prIcon=user" vertex="1" parent="1">
          <mxGeometry x="444.5" y="-173" width="125" height="120" as="geometry" />
        </mxCell>
        <mxCell id="O7q4jtnxIEa_7QB6DmrL-1" value="" style="aspect=fixed;sketch=0;html=1;dashed=0;whitespace=wrap;fillColor=#2875E2;strokeColor=#ffffff;points=[[0.005,0.63,0],[0.1,0.2,0],[0.9,0.2,0],[0.5,0,0],[0.995,0.63,0],[0.72,0.99,0],[0.5,1,0],[0.28,0.99,0]];shape=mxgraph.kubernetes.icon2;prIcon=api" vertex="1" parent="1">
          <mxGeometry x="463.5" y="40" width="50" height="48" as="geometry" />
        </mxCell>
        <mxCell id="O7q4jtnxIEa_7QB6DmrL-2" value="" style="aspect=fixed;sketch=0;html=1;dashed=0;whitespace=wrap;fillColor=#2875E2;strokeColor=#ffffff;points=[[0.005,0.63,0],[0.1,0.2,0],[0.9,0.2,0],[0.5,0,0],[0.995,0.63,0],[0.72,0.99,0],[0.5,1,0],[0.28,0.99,0]];shape=mxgraph.kubernetes.icon2;prIcon=api" vertex="1" parent="1">
          <mxGeometry x="483.5" y="65" width="50" height="48" as="geometry" />
        </mxCell>
        <mxCell id="O7q4jtnxIEa_7QB6DmrL-28" value="" style="aspect=fixed;sketch=0;html=1;dashed=0;whitespace=wrap;fillColor=#2875E2;strokeColor=#ffffff;points=[[0.005,0.63,0],[0.1,0.2,0],[0.9,0.2,0],[0.5,0,0],[0.995,0.63,0],[0.72,0.99,0],[0.5,1,0],[0.28,0.99,0]];shape=mxgraph.kubernetes.icon2;kubernetesLabel=1;prIcon=pod" vertex="1" parent="1">
          <mxGeometry x="389.65999999999997" y="493.52" width="41.67" height="40" as="geometry" />
        </mxCell>
        <mxCell id="O7q4jtnxIEa_7QB6DmrL-120" value="&lt;b style=&quot;border-color: var(--border-color); color: rgb(0, 0, 0); font-family: Helvetica; font-style: normal; font-variant-ligatures: normal; font-variant-caps: normal; letter-spacing: normal; orphans: 2; text-align: center; text-indent: 0px; text-transform: none; widows: 2; word-spacing: 0px; -webkit-text-stroke-width: 0px; text-decoration-thickness: initial; text-decoration-style: initial; text-decoration-color: initial; font-size: 12px; background-color: rgb(251, 251, 251);&quot;&gt;&lt;font style=&quot;border-color: var(--border-color); font-size: 14px;&quot;&gt;snack-shop-api&lt;/font&gt;&lt;/b&gt;" style="text;whiteSpace=wrap;html=1;" vertex="1" parent="1">
          <mxGeometry x="272" y="630" width="120" height="40" as="geometry" />
        </mxCell>
        <mxCell id="O7q4jtnxIEa_7QB6DmrL-121" value="&lt;b style=&quot;border-color: var(--border-color); color: rgb(0, 0, 0); font-family: Helvetica; font-style: normal; font-variant-ligatures: normal; font-variant-caps: normal; letter-spacing: normal; orphans: 2; text-align: center; text-indent: 0px; text-transform: none; widows: 2; word-spacing: 0px; -webkit-text-stroke-width: 0px; text-decoration-thickness: initial; text-decoration-style: initial; text-decoration-color: initial; font-size: 12px; background-color: rgb(251, 251, 251);&quot;&gt;&lt;font style=&quot;border-color: var(--border-color); font-size: 14px;&quot;&gt;snack-shop-mysql&lt;/font&gt;&lt;/b&gt;" style="text;whiteSpace=wrap;html=1;" vertex="1" parent="1">
          <mxGeometry x="619.5" y="630" width="140.5" height="40" as="geometry" />
        </mxCell>
        <mxCell id="O7q4jtnxIEa_7QB6DmrL-106" style="edgeStyle=orthogonalEdgeStyle;rounded=0;orthogonalLoop=1;jettySize=auto;html=1;" edge="1" parent="1" source="O7q4jtnxIEa_7QB6DmrL-89" target="O7q4jtnxIEa_7QB6DmrL-3">
          <mxGeometry relative="1" as="geometry">
            <Array as="points">
              <mxPoint x="590" y="320" />
              <mxPoint x="530" y="320" />
            </Array>
          </mxGeometry>
        </mxCell>
      </root>
    </mxGraphModel>
  </diagram>
</mxfile>
